M48
;DRILL file {KiCad (5.0.1)-3} date 1/23/2022 6:52:06 PM
;FORMAT={-:-/ absolute / metric / decimal}
FMAT,2
METRIC,TZ
T1C0.800
T2C0.900
T3C1.000
%
G90
G05
M71
T1
X11.201Y-11.547
X11.201Y-14.087
X11.201Y-16.627
X11.201Y-19.167
X11.201Y-21.707
X11.201Y-24.247
X11.201Y-29.327
X11.201Y-31.867
X11.201Y-34.407
X11.201Y-36.947
X18.821Y-6.467
X18.821Y-16.627
X18.821Y-19.167
X18.821Y-21.707
X18.821Y-24.247
X18.821Y-26.787
X18.821Y-29.327
X18.821Y-31.867
X18.821Y-34.407
X18.821Y-36.947
X25.197Y-3.277
X30.077Y-3.277
T2
X5.563Y-15.535
X5.664Y-18.024
X5.944Y-23.256
X6.045Y-20.64
X9.322Y-24.247
X21.565Y-29.286
X22.25Y-21.631
X23.343Y-14.62
X24.892Y-16.449
X27.508Y-10.074
X28.016Y-8.118
X30.658Y-6.264
X48.684Y-13.198
T3
X3.327Y-13.02
X3.327Y-15.56
X3.327Y-18.1
X3.327Y-20.64
X3.327Y-23.18
X3.327Y-7.94
X3.327Y-10.48
X51.587Y-8.956
X51.587Y-11.496
X3.327Y-3.876
T0
M30
